<svg id="visual" viewBox="0 0 900 600" width="900" height="600" xmlns="http://www.w3.org/2000/svg" xmlns:xlink="http://www.w3.org/1999/xlink" version="1.1"><rect x="0" y="0" width="900" height="600" fill="#0A263D"></rect><path d="M0 478L21.5 484.5C43 491 86 504 128.8 492.5C171.7 481 214.3 445 257.2 444C300 443 343 477 385.8 494C428.7 511 471.3 511 514.2 490.8C557 470.7 600 430.3 642.8 426.8C685.7 423.3 728.3 456.7 771.2 463.3C814 470 857 450 878.5 440L900 430L900 601L878.5 601C857 601 814 601 771.2 601C728.3 601 685.7 601 642.8 601C600 601 557 601 514.2 601C471.3 601 428.7 601 385.8 601C343 601 300 601 257.2 601C214.3 601 171.7 601 128.8 601C86 601 43 601 21.5 601L0 601Z" fill="#8C6E39" stroke-linecap="round" stroke-linejoin="miter"></path></svg>