<svg id="visual" viewBox="0 0 900 100" width="900" height="100" xmlns="http://www.w3.org/2000/svg" xmlns:xlink="http://www.w3.org/1999/xlink" version="1.1"><rect x="0" y="0" width="900" height="100" fill="#0A263D"></rect><path d="M430 100L534 100L534 86L422 86L422 71L424 71L424 57L451 57L451 43L578 43L578 29L507 29L507 14L432 14L432 0L900 0L900 14L900 14L900 29L900 29L900 43L900 43L900 57L900 57L900 71L900 71L900 86L900 86L900 100L900 100Z" fill="#ffd300"></path><path d="M627 100L603 100L603 86L525 86L525 71L689 71L689 57L620 57L620 43L696 43L696 29L619 29L619 14L638 14L638 0L900 0L900 14L900 14L900 29L900 29L900 43L900 43L900 57L900 57L900 71L900 71L900 86L900 86L900 100L900 100Z" fill="#c79e2f"></path><path d="M766 100L818 100L818 86L716 86L716 71L761 71L761 57L750 57L750 43L725 43L725 29L669 29L669 14L708 14L708 0L900 0L900 14L900 14L900 29L900 29L900 43L900 43L900 57L900 57L900 71L900 71L900 86L900 86L900 100L900 100Z" fill="#8c6e39"></path></svg>