<svg xmlns="http://www.w3.org/2000/svg" xmlns:xlink="http://www.w3.org/1999/xlink" width="500" zoomAndPan="magnify" viewBox="0 0 375 149.999998" height="200" preserveAspectRatio="xMidYMid meet" version="1.0"><defs><g/></defs><g fill="#ffd300" fill-opacity="1"><g transform="translate(10.812409, 112.726357)"><g><path d="M 60.59375 -46.28125 C 65.539062 -40.851562 68.015625 -34.222656 68.015625 -26.390625 C 68.015625 -18.554688 65.539062 -11.941406 60.59375 -6.546875 C 55.65625 -1.148438 49.367188 1.546875 41.734375 1.546875 C 34.734375 1.546875 28.960938 -0.960938 24.421875 -5.984375 L 24.21875 -5.984375 L 24.21875 0 L 6.1875 0 L 6.1875 -88.640625 L 24.421875 -88.640625 L 24.421875 -47.828125 C 28.960938 -52.222656 34.734375 -54.421875 41.734375 -54.421875 C 49.367188 -54.421875 55.65625 -51.707031 60.59375 -46.28125 Z M 45.234375 -17.46875 C 47.503906 -19.769531 48.640625 -22.738281 48.640625 -26.375 C 48.640625 -30.019531 47.453125 -33.007812 45.078125 -35.34375 C 42.710938 -37.6875 39.78125 -38.859375 36.28125 -38.859375 C 32.84375 -38.859375 29.9375 -37.6875 27.5625 -35.34375 C 25.195312 -33.007812 24.015625 -30.023438 24.015625 -26.390625 C 24.015625 -22.816406 25.164062 -19.859375 27.46875 -17.515625 C 29.769531 -15.179688 32.707031 -14.015625 36.28125 -14.015625 C 39.988281 -14.015625 42.972656 -15.164062 45.234375 -17.46875 Z M 45.234375 -17.46875 "/></g></g></g><g fill="#ffd300" fill-opacity="1"><g transform="translate(71.511124, 112.726357)"><g><path d="M 23.390625 -52.875 L 23.390625 -27.71875 C 23.390625 -22.5 24.179688 -18.789062 25.765625 -16.59375 C 27.347656 -14.394531 30.023438 -13.296875 33.796875 -13.296875 C 37.578125 -13.296875 40.257812 -14.394531 41.84375 -16.59375 C 43.425781 -18.789062 44.21875 -22.5 44.21875 -27.71875 L 44.21875 -52.875 L 62.453125 -52.875 L 62.453125 -23.296875 C 62.453125 -14.492188 60.164062 -8.148438 55.59375 -4.265625 C 51.03125 -0.390625 43.765625 1.546875 33.796875 1.546875 C 23.835938 1.546875 16.570312 -0.390625 12 -4.265625 C 7.4375 -8.148438 5.15625 -14.492188 5.15625 -23.296875 L 5.15625 -52.875 Z M 23.390625 -52.875 "/></g></g></g><g fill="#ffd300" fill-opacity="1"><g transform="translate(129.427357, 112.726357)"><g><path d="M 29.171875 -54.421875 C 32.191406 -54.421875 35.175781 -54.078125 38.125 -53.390625 C 41.082031 -52.703125 43.285156 -52.015625 44.734375 -51.328125 L 46.890625 -50.296875 L 40.921875 -38.34375 C 36.796875 -40.539062 32.878906 -41.640625 29.171875 -41.640625 C 27.109375 -41.640625 25.644531 -41.414062 24.78125 -40.96875 C 23.925781 -40.519531 23.5 -39.675781 23.5 -38.4375 C 23.5 -38.164062 23.53125 -37.890625 23.59375 -37.609375 C 23.664062 -37.335938 23.804688 -37.082031 24.015625 -36.84375 C 24.222656 -36.601562 24.410156 -36.394531 24.578125 -36.21875 C 24.753906 -36.050781 25.046875 -35.863281 25.453125 -35.65625 C 25.867188 -35.445312 26.195312 -35.289062 26.4375 -35.1875 C 26.675781 -35.09375 27.066406 -34.941406 27.609375 -34.734375 C 28.160156 -34.523438 28.570312 -34.367188 28.84375 -34.265625 C 29.125 -34.160156 29.59375 -34.003906 30.25 -33.796875 C 30.90625 -33.597656 31.40625 -33.460938 31.75 -33.390625 C 33.875 -32.773438 35.722656 -32.085938 37.296875 -31.328125 C 38.878906 -30.578125 40.546875 -29.546875 42.296875 -28.234375 C 44.054688 -26.929688 45.414062 -25.28125 46.375 -23.28125 C 47.34375 -21.289062 47.828125 -19.023438 47.828125 -16.484375 C 47.828125 -4.460938 39.476562 1.546875 22.78125 1.546875 C 19 1.546875 15.40625 0.960938 12 -0.203125 C 8.601562 -1.367188 6.148438 -2.535156 4.640625 -3.703125 L 2.375 -5.5625 L 9.796875 -18.03125 C 10.335938 -17.550781 11.054688 -16.984375 11.953125 -16.328125 C 12.847656 -15.679688 14.460938 -14.789062 16.796875 -13.65625 C 19.128906 -12.519531 21.15625 -11.953125 22.875 -11.953125 C 26.65625 -11.953125 28.546875 -13.222656 28.546875 -15.765625 C 28.546875 -16.929688 28.0625 -17.84375 27.09375 -18.5 C 26.132812 -19.15625 24.503906 -19.894531 22.203125 -20.71875 C 19.898438 -21.539062 18.097656 -22.296875 16.796875 -22.984375 C 13.503906 -24.703125 10.894531 -26.640625 8.96875 -28.796875 C 7.039062 -30.960938 6.078125 -33.832031 6.078125 -37.40625 C 6.078125 -42.769531 8.15625 -46.945312 12.3125 -49.9375 C 16.46875 -52.925781 22.085938 -54.421875 29.171875 -54.421875 Z M 29.171875 -54.421875 "/></g></g></g><g fill="#ffd300" fill-opacity="1"><g transform="translate(170.442614, 112.726357)"><g/></g></g><g fill="#ffd300" fill-opacity="1"><g transform="translate(188.888875, 112.726357)"><g><path d="M 60.59375 -46.28125 C 65.539062 -40.851562 68.015625 -34.222656 68.015625 -26.390625 C 68.015625 -18.554688 65.539062 -11.941406 60.59375 -6.546875 C 55.65625 -1.148438 49.367188 1.546875 41.734375 1.546875 C 34.734375 1.546875 28.960938 -0.960938 24.421875 -5.984375 L 24.21875 -5.984375 L 24.21875 0 L 6.1875 0 L 6.1875 -88.640625 L 24.421875 -88.640625 L 24.421875 -47.828125 C 28.960938 -52.222656 34.734375 -54.421875 41.734375 -54.421875 C 49.367188 -54.421875 55.65625 -51.707031 60.59375 -46.28125 Z M 45.234375 -17.46875 C 47.503906 -19.769531 48.640625 -22.738281 48.640625 -26.375 C 48.640625 -30.019531 47.453125 -33.007812 45.078125 -35.34375 C 42.710938 -37.6875 39.78125 -38.859375 36.28125 -38.859375 C 32.84375 -38.859375 29.9375 -37.6875 27.5625 -35.34375 C 25.195312 -33.007812 24.015625 -30.023438 24.015625 -26.390625 C 24.015625 -22.816406 25.164062 -19.859375 27.46875 -17.515625 C 29.769531 -15.179688 32.707031 -14.015625 36.28125 -14.015625 C 39.988281 -14.015625 42.972656 -15.164062 45.234375 -17.46875 Z M 45.234375 -17.46875 "/></g></g></g><g fill="#ffd300" fill-opacity="1"><g transform="translate(249.587602, 112.726357)"><g><path d="M 59.671875 -23.90625 L 21.328125 -23.90625 C 21.328125 -20.195312 22.53125 -17.445312 24.9375 -15.65625 C 27.34375 -13.875 29.957031 -12.984375 32.78125 -12.984375 C 35.726562 -12.984375 38.0625 -13.378906 39.78125 -14.171875 C 41.5 -14.960938 43.457031 -16.523438 45.65625 -18.859375 L 58.84375 -12.265625 C 53.351562 -3.054688 44.21875 1.546875 31.4375 1.546875 C 23.46875 1.546875 16.628906 -1.179688 10.921875 -6.640625 C 5.222656 -12.109375 2.375 -18.6875 2.375 -26.375 C 2.375 -34.070312 5.222656 -40.671875 10.921875 -46.171875 C 16.628906 -51.671875 23.46875 -54.421875 31.4375 -54.421875 C 39.8125 -54.421875 46.628906 -52 51.890625 -47.15625 C 57.148438 -42.3125 59.78125 -35.390625 59.78125 -26.390625 C 59.78125 -25.148438 59.742188 -24.320312 59.671875 -23.90625 Z M 21.84375 -34.015625 L 41.953125 -34.015625 C 41.535156 -36.765625 40.453125 -38.875 38.703125 -40.34375 C 36.953125 -41.820312 34.703125 -42.5625 31.953125 -42.5625 C 28.929688 -42.5625 26.523438 -41.769531 24.734375 -40.1875 C 22.953125 -38.613281 21.988281 -36.554688 21.84375 -34.015625 Z M 21.84375 -34.015625 "/></g></g></g><g fill="#ffd300" fill-opacity="1"><g transform="translate(302.041937, 112.726357)"><g><path d="M 59.671875 -23.90625 L 21.328125 -23.90625 C 21.328125 -20.195312 22.53125 -17.445312 24.9375 -15.65625 C 27.34375 -13.875 29.957031 -12.984375 32.78125 -12.984375 C 35.726562 -12.984375 38.0625 -13.378906 39.78125 -14.171875 C 41.5 -14.960938 43.457031 -16.523438 45.65625 -18.859375 L 58.84375 -12.265625 C 53.351562 -3.054688 44.21875 1.546875 31.4375 1.546875 C 23.46875 1.546875 16.628906 -1.179688 10.921875 -6.640625 C 5.222656 -12.109375 2.375 -18.6875 2.375 -26.375 C 2.375 -34.070312 5.222656 -40.671875 10.921875 -46.171875 C 16.628906 -51.671875 23.46875 -54.421875 31.4375 -54.421875 C 39.8125 -54.421875 46.628906 -52 51.890625 -47.15625 C 57.148438 -42.3125 59.78125 -35.390625 59.78125 -26.390625 C 59.78125 -25.148438 59.742188 -24.320312 59.671875 -23.90625 Z M 21.84375 -34.015625 L 41.953125 -34.015625 C 41.535156 -36.765625 40.453125 -38.875 38.703125 -40.34375 C 36.953125 -41.820312 34.703125 -42.5625 31.953125 -42.5625 C 28.929688 -42.5625 26.523438 -41.769531 24.734375 -40.1875 C 22.953125 -38.613281 21.988281 -36.554688 21.84375 -34.015625 Z M 21.84375 -34.015625 "/></g></g></g></svg>